{
    "asset" : {
        "generator" : "Khronos glTF Blender I/O v1.2.75",
        "version" : "2.0"
    },
    "scene" : 0,
    "scenes" : [
        {
            "name" : "Scene",
            "nodes" : [
                0
            ]
        }
    ],
    "nodes" : [
        {
            "mesh" : 0,
            "name" : "Object.001"
        }
    ],
    "materials" : [
        {
            "doubleSided" : true,
            "emissiveFactor" : [
                0,
                0,
                0
            ],
            "name" : "Tan",
            "pbrMetallicRoughness" : {
                "baseColorFactor" : [
                    0.32920169830322266,
                    0.25558239221572876,
                    0.09890034049749374,
                    1
                ],
                "metallicFactor" : 0,
                "roughnessFactor" : 0.5
            }
        },
        {
            "doubleSided" : true,
            "emissiveFactor" : [
                0,
                0,
                0
            ],
            "name" : "Grey",
            "pbrMetallicRoughness" : {
                "baseColorFactor" : [
                    0.43854430317878723,
                    0.43854430317878723,
                    0.43854430317878723,
                    1
                ],
                "metallicFactor" : 0,
                "roughnessFactor" : 0.5
            }
        },
        {
            "doubleSided" : true,
            "emissiveFactor" : [
                0,
                0,
                0
            ],
            "name" : "Black",
            "pbrMetallicRoughness" : {
                "baseColorFactor" : [
                    0,
                    0,
                    0,
                    1
                ],
                "metallicFactor" : 0,
                "roughnessFactor" : 0.5
            }
        },
        {
            "doubleSided" : true,
            "emissiveFactor" : [
                0,
                0,
                0
            ],
            "name" : "White",
            "pbrMetallicRoughness" : {
                "baseColorFactor" : [
                    0.800000011920929,
                    0.800000011920929,
                    0.800000011920929,
                    1
                ],
                "metallicFactor" : 0,
                "roughnessFactor" : 0.5
            }
        },
        {
            "doubleSided" : true,
            "emissiveFactor" : [
                0,
                0,
                0
            ],
            "name" : "Dark Brown",
            "pbrMetallicRoughness" : {
                "baseColorFactor" : [
                    0.054951369762420654,
                    0.0324753113090992,
                    0.010985099710524082,
                    1
                ],
                "metallicFactor" : 0,
                "roughnessFactor" : 0.5
            }
        },
        {
            "doubleSided" : true,
            "emissiveFactor" : [
                0,
                0,
                0
            ],
            "name" : "Reddish Brown",
            "pbrMetallicRoughness" : {
                "baseColorFactor" : [
                    0.11927609890699387,
                    0.0277611892670393,
                    0.007416813634335995,
                    1
                ],
                "metallicFactor" : 0,
                "roughnessFactor" : 0.5
            }
        }
    ],
    "meshes" : [
        {
            "name" : "18932_dat.001",
            "primitives" : [
                {
                    "attributes" : {
                        "POSITION" : 0,
                        "NORMAL" : 1
                    },
                    "indices" : 2,
                    "material" : 0
                },
                {
                    "attributes" : {
                        "POSITION" : 3,
                        "NORMAL" : 4
                    },
                    "indices" : 5,
                    "material" : 1
                },
                {
                    "attributes" : {
                        "POSITION" : 6,
                        "NORMAL" : 7
                    },
                    "indices" : 8,
                    "material" : 2
                },
                {
                    "attributes" : {
                        "POSITION" : 9,
                        "NORMAL" : 10
                    },
                    "indices" : 11,
                    "material" : 3
                },
                {
                    "attributes" : {
                        "POSITION" : 12,
                        "NORMAL" : 13
                    },
                    "indices" : 14,
                    "material" : 4
                },
                {
                    "attributes" : {
                        "POSITION" : 15,
                        "NORMAL" : 16
                    },
                    "indices" : 17,
                    "material" : 5
                }
            ]
        }
    ],
    "accessors" : [
        {
            "bufferView" : 0,
            "componentType" : 5126,
            "count" : 1060,
            "max" : [
                0.28578007221221924,
                0.6895002126693726,
                0.3063400983810425
            ],
            "min" : [
                -0.29454007744789124,
                -3.9999489672482014e-05,
                -0.3383800983428955
            ],
            "type" : "VEC3"
        },
        {
            "bufferView" : 1,
            "componentType" : 5126,
            "count" : 1060,
            "type" : "VEC3"
        },
        {
            "bufferView" : 2,
            "componentType" : 5123,
            "count" : 3048,
            "type" : "SCALAR"
        },
        {
            "bufferView" : 3,
            "componentType" : 5126,
            "count" : 403,
            "max" : [
                0.31074008345603943,
                0.6616601943969727,
                0.3633401393890381
            ],
            "min" : [
                -0.32356011867523193,
                0.22098007798194885,
                -0.31608009338378906
            ],
            "type" : "VEC3"
        },
        {
            "bufferView" : 4,
            "componentType" : 5126,
            "count" : 403,
            "type" : "VEC3"
        },
        {
            "bufferView" : 5,
            "componentType" : 5123,
            "count" : 963,
            "type" : "SCALAR"
        },
        {
            "bufferView" : 6,
            "componentType" : 5126,
            "count" : 43,
            "max" : [
                0.13686297833919525,
                0.44020771980285645,
                0.34718450903892517
            ],
            "min" : [
                -0.1368427574634552,
                0.3725050985813141,
                0.3452495038509369
            ],
            "type" : "VEC3"
        },
        {
            "bufferView" : 7,
            "componentType" : 5126,
            "count" : 43,
            "type" : "VEC3"
        },
        {
            "bufferView" : 8,
            "componentType" : 5123,
            "count" : 72,
            "type" : "SCALAR"
        },
        {
            "bufferView" : 9,
            "componentType" : 5126,
            "count" : 90,
            "max" : [
                0.07308002561330795,
                0.3119201064109802,
                0.3929201364517212
            ],
            "min" : [
                -0.07642002403736115,
                0.22838006913661957,
                0.2752600908279419
            ],
            "type" : "VEC3"
        },
        {
            "bufferView" : 10,
            "componentType" : 5126,
            "count" : 90,
            "type" : "VEC3"
        },
        {
            "bufferView" : 11,
            "componentType" : 5123,
            "count" : 237,
            "type" : "SCALAR"
        },
        {
            "bufferView" : 12,
            "componentType" : 5126,
            "count" : 139,
            "max" : [
                0.13540002703666687,
                0.25224006175994873,
                0.34220007061958313
            ],
            "min" : [
                -0.1378200352191925,
                0.08694002777338028,
                0.2752600908279419
            ],
            "type" : "VEC3"
        },
        {
            "bufferView" : 13,
            "componentType" : 5126,
            "count" : 139,
            "type" : "VEC3"
        },
        {
            "bufferView" : 14,
            "componentType" : 5123,
            "count" : 513,
            "type" : "SCALAR"
        },
        {
            "bufferView" : 15,
            "componentType" : 5126,
            "count" : 146,
            "max" : [
                0.19728009402751923,
                0.40636011958122253,
                0.36882010102272034
            ],
            "min" : [
                -0.2059800624847412,
                0.049520015716552734,
                0.08816002309322357
            ],
            "type" : "VEC3"
        },
        {
            "bufferView" : 16,
            "componentType" : 5126,
            "count" : 146,
            "type" : "VEC3"
        },
        {
            "bufferView" : 17,
            "componentType" : 5123,
            "count" : 453,
            "type" : "SCALAR"
        }
    ],
    "bufferViews" : [
        {
            "buffer" : 0,
            "byteLength" : 12720,
            "byteOffset" : 0
        },
        {
            "buffer" : 0,
            "byteLength" : 12720,
            "byteOffset" : 12720
        },
        {
            "buffer" : 0,
            "byteLength" : 6096,
            "byteOffset" : 25440
        },
        {
            "buffer" : 0,
            "byteLength" : 4836,
            "byteOffset" : 31536
        },
        {
            "buffer" : 0,
            "byteLength" : 4836,
            "byteOffset" : 36372
        },
        {
            "buffer" : 0,
            "byteLength" : 1926,
            "byteOffset" : 41208
        },
        {
            "buffer" : 0,
            "byteLength" : 516,
            "byteOffset" : 43136
        },
        {
            "buffer" : 0,
            "byteLength" : 516,
            "byteOffset" : 43652
        },
        {
            "buffer" : 0,
            "byteLength" : 144,
            "byteOffset" : 44168
        },
        {
            "buffer" : 0,
            "byteLength" : 1080,
            "byteOffset" : 44312
        },
        {
            "buffer" : 0,
            "byteLength" : 1080,
            "byteOffset" : 45392
        },
        {
            "buffer" : 0,
            "byteLength" : 474,
            "byteOffset" : 46472
        },
        {
            "buffer" : 0,
            "byteLength" : 1668,
            "byteOffset" : 46948
        },
        {
            "buffer" : 0,
            "byteLength" : 1668,
            "byteOffset" : 48616
        },
        {
            "buffer" : 0,
            "byteLength" : 1026,
            "byteOffset" : 50284
        },
        {
            "buffer" : 0,
            "byteLength" : 1752,
            "byteOffset" : 51312
        },
        {
            "buffer" : 0,
            "byteLength" : 1752,
            "byteOffset" : 53064
        },
        {
            "buffer" : 0,
            "byteLength" : 906,
            "byteOffset" : 54816
        }
    ],
    "buffers" : [
        {
            "byteLength" : 55724,
            "uri" : "Tusken Raider.bin"
        }
    ]
}
