{
    "asset" : {
        "generator" : "Khronos glTF Blender I/O v1.2.75",
        "version" : "2.0"
    },
    "scene" : 0,
    "scenes" : [
        {
            "name" : "Scene",
            "nodes" : [
                0
            ]
        }
    ],
    "nodes" : [
        {
            "mesh" : 0,
            "name" : "Object.001"
        }
    ],
    "materials" : [
        {
            "doubleSided" : true,
            "emissiveFactor" : [
                0,
                0,
                0
            ],
            "name" : "Reddish_Brown-material",
            "pbrMetallicRoughness" : {
                "baseColorFactor" : [
                    1,
                    0.6630996465682983,
                    0.3061494827270508,
                    1
                ],
                "metallicFactor" : 0,
                "roughnessFactor" : 0.5
            }
        },
        {
            "doubleSided" : true,
            "emissiveFactor" : [
                0,
                0,
                0
            ],
            "name" : "Dark_Brown-material",
            "pbrMetallicRoughness" : {
                "baseColorFactor" : [
                    0.090830497443676,
                    0.02896326221525669,
                    0.003833384020254016,
                    1
                ],
                "metallicFactor" : 0,
                "roughnessFactor" : 0.5
            }
        },
        {
            "doubleSided" : true,
            "emissiveFactor" : [
                0,
                0,
                0
            ],
            "name" : "White-material",
            "pbrMetallicRoughness" : {
                "baseColorFactor" : [
                    1,
                    1,
                    1,
                    1
                ],
                "metallicFactor" : 0,
                "roughnessFactor" : 0.5
            }
        },
        {
            "doubleSided" : true,
            "emissiveFactor" : [
                0,
                0,
                0
            ],
            "name" : "Light_Orange-material",
            "pbrMetallicRoughness" : {
                "baseColorFactor" : [
                    0.976470947265625,
                    0.3782322406768799,
                    0.15352587401866913,
                    1
                ],
                "metallicFactor" : 0,
                "roughnessFactor" : 0.5
            }
        },
        {
            "doubleSided" : true,
            "emissiveFactor" : [
                0,
                0,
                0
            ],
            "name" : "Black-material",
            "pbrMetallicRoughness" : {
                "baseColorFactor" : [
                    0.019607800990343094,
                    0.07450979948043823,
                    0.11372499912977219,
                    1
                ],
                "metallicFactor" : 0,
                "roughnessFactor" : 0.5
            }
        }
    ],
    "meshes" : [
        {
            "name" : "92750_dat.001",
            "primitives" : [
                {
                    "attributes" : {
                        "POSITION" : 0,
                        "NORMAL" : 1
                    },
                    "indices" : 2,
                    "material" : 0
                },
                {
                    "attributes" : {
                        "POSITION" : 3,
                        "NORMAL" : 4
                    },
                    "indices" : 5,
                    "material" : 1
                },
                {
                    "attributes" : {
                        "POSITION" : 6,
                        "NORMAL" : 7
                    },
                    "indices" : 8,
                    "material" : 2
                },
                {
                    "attributes" : {
                        "POSITION" : 9,
                        "NORMAL" : 10
                    },
                    "indices" : 11,
                    "material" : 3
                },
                {
                    "attributes" : {
                        "POSITION" : 12,
                        "NORMAL" : 13
                    },
                    "indices" : 14,
                    "material" : 4
                }
            ]
        }
    ],
    "accessors" : [
        {
            "bufferView" : 0,
            "componentType" : 5126,
            "count" : 819,
            "max" : [
                0.3798600733280182,
                0.8241001963615417,
                0.517280101776123
            ],
            "min" : [
                -0.43110010027885437,
                -0.6402000784873962,
                -0.3756400942802429
            ],
            "type" : "VEC3"
        },
        {
            "bufferView" : 1,
            "componentType" : 5126,
            "count" : 819,
            "type" : "VEC3"
        },
        {
            "bufferView" : 2,
            "componentType" : 5123,
            "count" : 2598,
            "type" : "SCALAR"
        },
        {
            "bufferView" : 3,
            "componentType" : 5126,
            "count" : 1386,
            "max" : [
                0.42280006408691406,
                0.7909601926803589,
                0.4554000496864319
            ],
            "min" : [
                -0.4302200973033905,
                -0.8705601692199707,
                -0.49900004267692566
            ],
            "type" : "VEC3"
        },
        {
            "bufferView" : 4,
            "componentType" : 5126,
            "count" : 1386,
            "type" : "VEC3"
        },
        {
            "bufferView" : 5,
            "componentType" : 5123,
            "count" : 4284,
            "type" : "SCALAR"
        },
        {
            "bufferView" : 6,
            "componentType" : 5126,
            "count" : 114,
            "max" : [
                0.34014007449150085,
                0.8408802151679993,
                0.517280101776123
            ],
            "min" : [
                -0.28908008337020874,
                -0.637900173664093,
                -0.10634002834558487
            ],
            "type" : "VEC3"
        },
        {
            "bufferView" : 7,
            "componentType" : 5126,
            "count" : 114,
            "type" : "VEC3"
        },
        {
            "bufferView" : 8,
            "componentType" : 5123,
            "count" : 417,
            "type" : "SCALAR"
        },
        {
            "bufferView" : 9,
            "componentType" : 5126,
            "count" : 75,
            "max" : [
                0.13238002359867096,
                0.541840136051178,
                0.4285200536251068
            ],
            "min" : [
                -0.2418600469827652,
                0.030500007793307304,
                0.23064005374908447
            ],
            "type" : "VEC3"
        },
        {
            "bufferView" : 10,
            "componentType" : 5126,
            "count" : 75,
            "type" : "VEC3"
        },
        {
            "bufferView" : 11,
            "componentType" : 5123,
            "count" : 303,
            "type" : "SCALAR"
        },
        {
            "bufferView" : 12,
            "componentType" : 5126,
            "count" : 22,
            "max" : [
                0.14678002893924713,
                0.3193800747394562,
                0.30336007475852966
            ],
            "min" : [
                -0.1629200428724289,
                0.2268400490283966,
                0.2722800672054291
            ],
            "type" : "VEC3"
        },
        {
            "bufferView" : 13,
            "componentType" : 5126,
            "count" : 22,
            "type" : "VEC3"
        },
        {
            "bufferView" : 14,
            "componentType" : 5123,
            "count" : 72,
            "type" : "SCALAR"
        }
    ],
    "bufferViews" : [
        {
            "buffer" : 0,
            "byteLength" : 9828,
            "byteOffset" : 0
        },
        {
            "buffer" : 0,
            "byteLength" : 9828,
            "byteOffset" : 9828
        },
        {
            "buffer" : 0,
            "byteLength" : 5196,
            "byteOffset" : 19656
        },
        {
            "buffer" : 0,
            "byteLength" : 16632,
            "byteOffset" : 24852
        },
        {
            "buffer" : 0,
            "byteLength" : 16632,
            "byteOffset" : 41484
        },
        {
            "buffer" : 0,
            "byteLength" : 8568,
            "byteOffset" : 58116
        },
        {
            "buffer" : 0,
            "byteLength" : 1368,
            "byteOffset" : 66684
        },
        {
            "buffer" : 0,
            "byteLength" : 1368,
            "byteOffset" : 68052
        },
        {
            "buffer" : 0,
            "byteLength" : 834,
            "byteOffset" : 69420
        },
        {
            "buffer" : 0,
            "byteLength" : 900,
            "byteOffset" : 70256
        },
        {
            "buffer" : 0,
            "byteLength" : 900,
            "byteOffset" : 71156
        },
        {
            "buffer" : 0,
            "byteLength" : 606,
            "byteOffset" : 72056
        },
        {
            "buffer" : 0,
            "byteLength" : 264,
            "byteOffset" : 72664
        },
        {
            "buffer" : 0,
            "byteLength" : 264,
            "byteOffset" : 72928
        },
        {
            "buffer" : 0,
            "byteLength" : 144,
            "byteOffset" : 73192
        }
    ],
    "buffers" : [
        {
            "byteLength" : 73336,
            "uri" : "Logray Head.bin"
        }
    ]
}
