{
    "asset" : {
        "generator" : "Khronos glTF Blender I/O v1.2.75",
        "version" : "2.0"
    },
    "scene" : 0,
    "scenes" : [
        {
            "name" : "Scene",
            "nodes" : [
                0
            ]
        }
    ],
    "nodes" : [
        {
            "mesh" : 0,
            "name" : "Object"
        }
    ],
    "materials" : [
        {
            "doubleSided" : true,
            "emissiveFactor" : [
                0,
                0,
                0
            ],
            "name" : "Reddish_Brown-material",
            "pbrMetallicRoughness" : {
                "baseColorFactor" : [
                    0.34509798884391785,
                    0.1647060066461563,
                    0.07058820128440857,
                    1
                ],
                "metallicFactor" : 0,
                "roughnessFactor" : 0.5
            }
        },
        {
            "doubleSided" : true,
            "emissiveFactor" : [
                0,
                0,
                0
            ],
            "name" : "Yellow-material",
            "pbrMetallicRoughness" : {
                "baseColorFactor" : [
                    0.9490199685096741,
                    0.8039219975471497,
                    0.21568599343299866,
                    1
                ],
                "metallicFactor" : 0,
                "roughnessFactor" : 0.5
            }
        },
        {
            "doubleSided" : true,
            "emissiveFactor" : [
                0,
                0,
                0
            ],
            "name" : "Black-material",
            "pbrMetallicRoughness" : {
                "baseColorFactor" : [
                    0.019607800990343094,
                    0.07450979948043823,
                    0.11372499912977219,
                    1
                ],
                "metallicFactor" : 0,
                "roughnessFactor" : 0.5
            }
        }
    ],
    "meshes" : [
        {
            "name" : "64808_dat",
            "primitives" : [
                {
                    "attributes" : {
                        "POSITION" : 0,
                        "NORMAL" : 1
                    },
                    "indices" : 2,
                    "material" : 0
                },
                {
                    "attributes" : {
                        "POSITION" : 3,
                        "NORMAL" : 4
                    },
                    "indices" : 5,
                    "material" : 1
                },
                {
                    "attributes" : {
                        "POSITION" : 6,
                        "NORMAL" : 7
                    },
                    "indices" : 8,
                    "material" : 2
                }
            ]
        }
    ],
    "accessors" : [
        {
            "bufferView" : 0,
            "componentType" : 5126,
            "count" : 671,
            "max" : [
                0.3896999955177307,
                0.8376400470733643,
                0.5518800020217896
            ],
            "min" : [
                -0.3896999955177307,
                0,
                -0.379720002412796
            ],
            "type" : "VEC3"
        },
        {
            "bufferView" : 1,
            "componentType" : 5126,
            "count" : 671,
            "type" : "VEC3"
        },
        {
            "bufferView" : 2,
            "componentType" : 5123,
            "count" : 3432,
            "type" : "SCALAR"
        },
        {
            "bufferView" : 3,
            "componentType" : 5126,
            "count" : 44,
            "max" : [
                0.3933600187301636,
                0.5086600184440613,
                0.2714399993419647
            ],
            "min" : [
                -0.3933600187301636,
                0.33866000175476074,
                0.12610000371932983
            ],
            "type" : "VEC3"
        },
        {
            "bufferView" : 4,
            "componentType" : 5126,
            "count" : 44,
            "type" : "VEC3"
        },
        {
            "bufferView" : 5,
            "componentType" : 5123,
            "count" : 132,
            "type" : "SCALAR"
        },
        {
            "bufferView" : 6,
            "componentType" : 5126,
            "count" : 44,
            "max" : [
                0.3933600187301636,
                0.4882200062274933,
                0.26636001467704773
            ],
            "min" : [
                -0.3933600187301636,
                0.36296001076698303,
                0.16645999252796173
            ],
            "type" : "VEC3"
        },
        {
            "bufferView" : 7,
            "componentType" : 5126,
            "count" : 44,
            "type" : "VEC3"
        },
        {
            "bufferView" : 8,
            "componentType" : 5123,
            "count" : 186,
            "type" : "SCALAR"
        }
    ],
    "bufferViews" : [
        {
            "buffer" : 0,
            "byteLength" : 8052,
            "byteOffset" : 0
        },
        {
            "buffer" : 0,
            "byteLength" : 8052,
            "byteOffset" : 8052
        },
        {
            "buffer" : 0,
            "byteLength" : 6864,
            "byteOffset" : 16104
        },
        {
            "buffer" : 0,
            "byteLength" : 528,
            "byteOffset" : 22968
        },
        {
            "buffer" : 0,
            "byteLength" : 528,
            "byteOffset" : 23496
        },
        {
            "buffer" : 0,
            "byteLength" : 264,
            "byteOffset" : 24024
        },
        {
            "buffer" : 0,
            "byteLength" : 528,
            "byteOffset" : 24288
        },
        {
            "buffer" : 0,
            "byteLength" : 528,
            "byteOffset" : 24816
        },
        {
            "buffer" : 0,
            "byteLength" : 372,
            "byteOffset" : 25344
        }
    ],
    "buffers" : [
        {
            "byteLength" : 25716,
            "uri" : "Mon Calamari.bin"
        }
    ]
}
