{
    "asset" : {
        "generator" : "Khronos glTF Blender I/O v1.2.75",
        "version" : "2.0"
    },
    "scene" : 0,
    "scenes" : [
        {
            "name" : "Scene",
            "nodes" : [
                0
            ]
        }
    ],
    "nodes" : [
        {
            "mesh" : 0,
            "name" : "Object"
        }
    ],
    "materials" : [
        {
            "doubleSided" : true,
            "emissiveFactor" : [
                0,
                0,
                0
            ],
            "name" : "Dark_Grey-material",
            "pbrMetallicRoughness" : {
                "baseColorFactor" : [
                    0.4274509847164154,
                    0.4313730001449585,
                    0.36078399419784546,
                    1
                ],
                "metallicFactor" : 0,
                "roughnessFactor" : 0.5
            }
        },
        {
            "doubleSided" : true,
            "emissiveFactor" : [
                0,
                0,
                0
            ],
            "name" : "Bright_Light_Yellow-material",
            "pbrMetallicRoughness" : {
                "baseColorFactor" : [
                    1,
                    0.9411759972572327,
                    0.22745099663734436,
                    1
                ],
                "metallicFactor" : 0,
                "roughnessFactor" : 0.5
            }
        },
        {
            "doubleSided" : true,
            "emissiveFactor" : [
                0,
                0,
                0
            ],
            "name" : "Black-material",
            "pbrMetallicRoughness" : {
                "baseColorFactor" : [
                    0.019607800990343094,
                    0.07450979948043823,
                    0.11372499912977219,
                    1
                ],
                "metallicFactor" : 0,
                "roughnessFactor" : 0.5
            }
        }
    ],
    "meshes" : [
        {
            "name" : "13197_dat.001",
            "primitives" : [
                {
                    "attributes" : {
                        "POSITION" : 0,
                        "NORMAL" : 1
                    },
                    "indices" : 2,
                    "material" : 0
                },
                {
                    "attributes" : {
                        "POSITION" : 3,
                        "NORMAL" : 4
                    },
                    "indices" : 5,
                    "material" : 1
                },
                {
                    "attributes" : {
                        "POSITION" : 6,
                        "NORMAL" : 7
                    },
                    "indices" : 8,
                    "material" : 2
                }
            ]
        }
    ],
    "accessors" : [
        {
            "bufferView" : 0,
            "componentType" : 5126,
            "count" : 647,
            "max" : [
                0.22206003963947296,
                0.869400143623352,
                0.42388007044792175
            ],
            "min" : [
                -0.22206003963947296,
                0,
                -0.6598600745201111
            ],
            "type" : "VEC3"
        },
        {
            "bufferView" : 1,
            "componentType" : 5126,
            "count" : 647,
            "type" : "VEC3"
        },
        {
            "bufferView" : 2,
            "componentType" : 5123,
            "count" : 2610,
            "type" : "SCALAR"
        },
        {
            "bufferView" : 3,
            "componentType" : 5126,
            "count" : 36,
            "max" : [
                0.1442200243473053,
                0.524528980255127,
                0.10854002088308334
            ],
            "min" : [
                -0.1442200243473053,
                0.45812007784843445,
                -0.03276000916957855
            ],
            "type" : "VEC3"
        },
        {
            "bufferView" : 4,
            "componentType" : 5126,
            "count" : 36,
            "type" : "VEC3"
        },
        {
            "bufferView" : 5,
            "componentType" : 5123,
            "count" : 102,
            "type" : "SCALAR"
        },
        {
            "bufferView" : 6,
            "componentType" : 5126,
            "count" : 14,
            "max" : [
                0.1442200243473053,
                0.5240145921707153,
                0.07105803489685059
            ],
            "min" : [
                -0.1442200243473053,
                0.46866515278816223,
                0.02576000615954399
            ],
            "type" : "VEC3"
        },
        {
            "bufferView" : 7,
            "componentType" : 5126,
            "count" : 14,
            "type" : "VEC3"
        },
        {
            "bufferView" : 8,
            "componentType" : 5123,
            "count" : 30,
            "type" : "SCALAR"
        }
    ],
    "bufferViews" : [
        {
            "buffer" : 0,
            "byteLength" : 7764,
            "byteOffset" : 0
        },
        {
            "buffer" : 0,
            "byteLength" : 7764,
            "byteOffset" : 7764
        },
        {
            "buffer" : 0,
            "byteLength" : 5220,
            "byteOffset" : 15528
        },
        {
            "buffer" : 0,
            "byteLength" : 432,
            "byteOffset" : 20748
        },
        {
            "buffer" : 0,
            "byteLength" : 432,
            "byteOffset" : 21180
        },
        {
            "buffer" : 0,
            "byteLength" : 204,
            "byteOffset" : 21612
        },
        {
            "buffer" : 0,
            "byteLength" : 168,
            "byteOffset" : 21816
        },
        {
            "buffer" : 0,
            "byteLength" : 168,
            "byteOffset" : 21984
        },
        {
            "buffer" : 0,
            "byteLength" : 60,
            "byteOffset" : 22152
        }
    ],
    "buffers" : [
        {
            "byteLength" : 22212,
            "uri" : "Coleman Trebor Head.bin"
        }
    ]
}
