{
    "asset" : {
        "generator" : "Khronos glTF Blender I/O v1.2.75",
        "version" : "2.0"
    },
    "scene" : 0,
    "scenes" : [
        {
            "name" : "Scene",
            "nodes" : [
                0
            ]
        }
    ],
    "nodes" : [
        {
            "mesh" : 0,
            "name" : "Object"
        }
    ],
    "materials" : [
        {
            "doubleSided" : true,
            "emissiveFactor" : [
                0,
                0,
                0
            ],
            "name" : "Dark_Azure-material",
            "pbrMetallicRoughness" : {
                "baseColorFactor" : [
                    0.0784313976764679,
                    0.5960779786109924,
                    0.8431370258331299,
                    1
                ],
                "metallicFactor" : 0,
                "roughnessFactor" : 0.5
            }
        },
        {
            "doubleSided" : true,
            "emissiveFactor" : [
                0,
                0,
                0
            ],
            "name" : "Black-material",
            "pbrMetallicRoughness" : {
                "baseColorFactor" : [
                    0.019607800990343094,
                    0.07450979948043823,
                    0.11372499912977219,
                    1
                ],
                "metallicFactor" : 0,
                "roughnessFactor" : 0.5
            }
        },
        {
            "doubleSided" : true,
            "emissiveFactor" : [
                0,
                0,
                0
            ],
            "name" : "White-material",
            "pbrMetallicRoughness" : {
                "baseColorFactor" : [
                    1,
                    1,
                    1,
                    1
                ],
                "metallicFactor" : 0,
                "roughnessFactor" : 0.5
            }
        }
    ],
    "meshes" : [
        {
            "name" : "13196_dat",
            "primitives" : [
                {
                    "attributes" : {
                        "POSITION" : 0,
                        "NORMAL" : 1
                    },
                    "indices" : 2,
                    "material" : 0
                },
                {
                    "attributes" : {
                        "POSITION" : 3,
                        "NORMAL" : 4
                    },
                    "indices" : 5,
                    "material" : 1
                },
                {
                    "attributes" : {
                        "POSITION" : 6,
                        "NORMAL" : 7
                    },
                    "indices" : 8,
                    "material" : 2
                }
            ]
        }
    ],
    "accessors" : [
        {
            "bufferView" : 0,
            "componentType" : 5126,
            "count" : 733,
            "max" : [
                0.7877600193023682,
                0.4765999913215637,
                0.6615800261497498
            ],
            "min" : [
                -0.7877600193023682,
                -0.5887400507926941,
                -0.5378999710083008
            ],
            "type" : "VEC3"
        },
        {
            "bufferView" : 1,
            "componentType" : 5126,
            "count" : 733,
            "type" : "VEC3"
        },
        {
            "bufferView" : 2,
            "componentType" : 5123,
            "count" : 3612,
            "type" : "SCALAR"
        },
        {
            "bufferView" : 3,
            "componentType" : 5126,
            "count" : 32,
            "max" : [
                0.23288001120090485,
                0.26368001103401184,
                0.512999951839447
            ],
            "min" : [
                -0.23288001120090485,
                0.13936001062393188,
                0.4203999936580658
            ],
            "type" : "VEC3"
        },
        {
            "bufferView" : 4,
            "componentType" : 5126,
            "count" : 32,
            "type" : "VEC3"
        },
        {
            "bufferView" : 5,
            "componentType" : 5123,
            "count" : 96,
            "type" : "SCALAR"
        },
        {
            "bufferView" : 6,
            "componentType" : 5126,
            "count" : 18,
            "max" : [
                0.23288001120090485,
                0.24896001815795898,
                0.512999951839447
            ],
            "min" : [
                -0.23288001120090485,
                0.15794000029563904,
                0.4550600051879883
            ],
            "type" : "VEC3"
        },
        {
            "bufferView" : 7,
            "componentType" : 5126,
            "count" : 18,
            "type" : "VEC3"
        },
        {
            "bufferView" : 8,
            "componentType" : 5123,
            "count" : 48,
            "type" : "SCALAR"
        }
    ],
    "bufferViews" : [
        {
            "buffer" : 0,
            "byteLength" : 8796,
            "byteOffset" : 0
        },
        {
            "buffer" : 0,
            "byteLength" : 8796,
            "byteOffset" : 8796
        },
        {
            "buffer" : 0,
            "byteLength" : 7224,
            "byteOffset" : 17592
        },
        {
            "buffer" : 0,
            "byteLength" : 384,
            "byteOffset" : 24816
        },
        {
            "buffer" : 0,
            "byteLength" : 384,
            "byteOffset" : 25200
        },
        {
            "buffer" : 0,
            "byteLength" : 192,
            "byteOffset" : 25584
        },
        {
            "buffer" : 0,
            "byteLength" : 216,
            "byteOffset" : 25776
        },
        {
            "buffer" : 0,
            "byteLength" : 216,
            "byteOffset" : 25992
        },
        {
            "buffer" : 0,
            "byteLength" : 96,
            "byteOffset" : 26208
        }
    ],
    "buffers" : [
        {
            "byteLength" : 26304,
            "uri" : "Max Rebo.bin"
        }
    ]
}
