{
    "asset" : {
        "generator" : "Khronos glTF Blender I/O v1.2.75",
        "version" : "2.0"
    },
    "scene" : 0,
    "scenes" : [
        {
            "name" : "Scene",
            "nodes" : [
                0
            ]
        }
    ],
    "nodes" : [
        {
            "mesh" : 0,
            "name" : "Object",
            "translation" : [
                0.007999999448657036,
                0.01599999889731407,
                0.012000000104308128
            ]
        }
    ],
    "materials" : [
        {
            "doubleSided" : true,
            "emissiveFactor" : [
                0,
                0,
                0
            ],
            "name" : "Olive_Green-material",
            "pbrMetallicRoughness" : {
                "baseColorFactor" : [
                    0.21586060523986816,
                    0.23074010014533997,
                    0.0843762457370758,
                    1
                ],
                "metallicFactor" : 0,
                "roughnessFactor" : 0.5
            }
        },
        {
            "doubleSided" : true,
            "emissiveFactor" : [
                0,
                0,
                0
            ],
            "name" : "Dark_Grey-material",
            "pbrMetallicRoughness" : {
                "baseColorFactor" : [
                    0.02700263075530529,
                    0.027210019528865814,
                    0.02349017560482025,
                    1
                ],
                "metallicFactor" : 0,
                "roughnessFactor" : 0.5
            }
        },
        {
            "doubleSided" : true,
            "emissiveFactor" : [
                0,
                0,
                0
            ],
            "name" : "Dark_Brown-material",
            "pbrMetallicRoughness" : {
                "baseColorFactor" : [
                    0.037385907024145126,
                    0.016778647899627686,
                    0.007320818956941366,
                    1
                ],
                "metallicFactor" : 0,
                "roughnessFactor" : 0.5
            }
        },
        {
            "doubleSided" : true,
            "emissiveFactor" : [
                0,
                0,
                0
            ],
            "name" : "Reddish_Brown-material",
            "pbrMetallicRoughness" : {
                "baseColorFactor" : [
                    0.34509798884391785,
                    0.1647060066461563,
                    0.07058820128440857,
                    1
                ],
                "metallicFactor" : 0,
                "roughnessFactor" : 0.5
            }
        },
        {
            "doubleSided" : true,
            "emissiveFactor" : [
                0,
                0,
                0
            ],
            "name" : "Metallic_Silver-material",
            "pbrMetallicRoughness" : {
                "baseColorFactor" : [
                    0.6470590233802795,
                    0.6627449989318848,
                    0.7058820128440857,
                    1
                ],
                "metallicFactor" : 0,
                "roughnessFactor" : 0.5
            }
        },
        {
            "doubleSided" : true,
            "emissiveFactor" : [
                0,
                0,
                0
            ],
            "name" : "Very_Light_Orange-material",
            "pbrMetallicRoughness" : {
                "baseColorFactor" : [
                    0.9529411792755127,
                    0.1837259829044342,
                    0.03258078545331955,
                    1
                ],
                "metallicFactor" : 0,
                "roughnessFactor" : 0.5
            }
        },
        {
            "doubleSided" : true,
            "emissiveFactor" : [
                0,
                0,
                0
            ],
            "name" : "Tan-material",
            "pbrMetallicRoughness" : {
                "baseColorFactor" : [
                    0.8941181302070618,
                    0.5355092287063599,
                    0.35919225215911865,
                    1
                ],
                "metallicFactor" : 0,
                "roughnessFactor" : 0.5
            }
        },
        {
            "doubleSided" : true,
            "emissiveFactor" : [
                0,
                0,
                0
            ],
            "name" : "Black-material",
            "pbrMetallicRoughness" : {
                "baseColorFactor" : [
                    0.005181517452001572,
                    0.00518151605501771,
                    0.005181516520678997,
                    1
                ],
                "metallicFactor" : 0,
                "roughnessFactor" : 0.5
            }
        }
    ],
    "meshes" : [
        {
            "name" : "98120_dat",
            "primitives" : [
                {
                    "attributes" : {
                        "POSITION" : 0,
                        "NORMAL" : 1
                    },
                    "indices" : 2,
                    "material" : 0
                },
                {
                    "attributes" : {
                        "POSITION" : 3,
                        "NORMAL" : 4
                    },
                    "indices" : 5,
                    "material" : 1
                },
                {
                    "attributes" : {
                        "POSITION" : 6,
                        "NORMAL" : 7
                    },
                    "indices" : 8,
                    "material" : 2
                },
                {
                    "attributes" : {
                        "POSITION" : 9,
                        "NORMAL" : 10
                    },
                    "indices" : 11,
                    "material" : 3
                },
                {
                    "attributes" : {
                        "POSITION" : 12,
                        "NORMAL" : 13
                    },
                    "indices" : 14,
                    "material" : 4
                },
                {
                    "attributes" : {
                        "POSITION" : 15,
                        "NORMAL" : 16
                    },
                    "indices" : 17,
                    "material" : 5
                },
                {
                    "attributes" : {
                        "POSITION" : 18,
                        "NORMAL" : 19
                    },
                    "indices" : 20,
                    "material" : 6
                },
                {
                    "attributes" : {
                        "POSITION" : 21,
                        "NORMAL" : 22
                    },
                    "indices" : 23,
                    "material" : 7
                }
            ]
        }
    ],
    "accessors" : [
        {
            "bufferView" : 0,
            "componentType" : 5126,
            "count" : 519,
            "max" : [
                0.3653600811958313,
                0.6481801271438599,
                0.5611401200294495
            ],
            "min" : [
                -0.37042009830474854,
                -0.7684600949287415,
                -0.21118004620075226
            ],
            "type" : "VEC3"
        },
        {
            "bufferView" : 1,
            "componentType" : 5126,
            "count" : 519,
            "type" : "VEC3"
        },
        {
            "bufferView" : 2,
            "componentType" : 5123,
            "count" : 1752,
            "type" : "SCALAR"
        },
        {
            "bufferView" : 3,
            "componentType" : 5126,
            "count" : 603,
            "max" : [
                0.6536001563072205,
                0.7221601605415344,
                0.3249400854110718
            ],
            "min" : [
                -0.6536001563072205,
                -0.30142006278038025,
                -0.246100053191185
            ],
            "type" : "VEC3"
        },
        {
            "bufferView" : 4,
            "componentType" : 5126,
            "count" : 603,
            "type" : "VEC3"
        },
        {
            "bufferView" : 5,
            "componentType" : 5123,
            "count" : 1773,
            "type" : "SCALAR"
        },
        {
            "bufferView" : 6,
            "componentType" : 5126,
            "count" : 315,
            "max" : [
                0.33976006507873535,
                0.10600002110004425,
                0.4539000988006592
            ],
            "min" : [
                -0.3395400941371918,
                -0.4821200966835022,
                -0.4017401337623596
            ],
            "type" : "VEC3"
        },
        {
            "bufferView" : 7,
            "componentType" : 5126,
            "count" : 315,
            "type" : "VEC3"
        },
        {
            "bufferView" : 8,
            "componentType" : 5123,
            "count" : 819,
            "type" : "SCALAR"
        },
        {
            "bufferView" : 9,
            "componentType" : 5126,
            "count" : 669,
            "max" : [
                0.3653600811958313,
                0.7806001305580139,
                0.43438011407852173
            ],
            "min" : [
                -0.37042009830474854,
                -0.7684600949287415,
                -0.4158800542354584
            ],
            "type" : "VEC3"
        },
        {
            "bufferView" : 10,
            "componentType" : 5126,
            "count" : 669,
            "type" : "VEC3"
        },
        {
            "bufferView" : 11,
            "componentType" : 5123,
            "count" : 2769,
            "type" : "SCALAR"
        },
        {
            "bufferView" : 12,
            "componentType" : 5126,
            "count" : 60,
            "max" : [
                0.1166200339794159,
                -0.31286007165908813,
                0.44042012095451355
            ],
            "min" : [
                -0.12770003080368042,
                -0.5640201568603516,
                0.39468008279800415
            ],
            "type" : "VEC3"
        },
        {
            "bufferView" : 13,
            "componentType" : 5126,
            "count" : 60,
            "type" : "VEC3"
        },
        {
            "bufferView" : 14,
            "componentType" : 5123,
            "count" : 225,
            "type" : "SCALAR"
        },
        {
            "bufferView" : 15,
            "componentType" : 5126,
            "count" : 14,
            "max" : [
                0.10702002048492432,
                0.41814008355140686,
                0.5611401200294495
            ],
            "min" : [
                -0.10702002048492432,
                0.3219000995159149,
                0.4941001236438751
            ],
            "type" : "VEC3"
        },
        {
            "bufferView" : 16,
            "componentType" : 5126,
            "count" : 14,
            "type" : "VEC3"
        },
        {
            "bufferView" : 17,
            "componentType" : 5123,
            "count" : 36,
            "type" : "SCALAR"
        },
        {
            "bufferView" : 18,
            "componentType" : 5126,
            "count" : 130,
            "max" : [
                0.24334004521369934,
                0.7806001305580139,
                0.5176601409912109
            ],
            "min" : [
                -0.24334004521369934,
                0.12428002804517746,
                0.07620001584291458
            ],
            "type" : "VEC3"
        },
        {
            "bufferView" : 19,
            "componentType" : 5126,
            "count" : 130,
            "type" : "VEC3"
        },
        {
            "bufferView" : 20,
            "componentType" : 5123,
            "count" : 384,
            "type" : "SCALAR"
        },
        {
            "bufferView" : 21,
            "componentType" : 5126,
            "count" : 20,
            "max" : [
                0.13220001757144928,
                0.47644010186195374,
                0.3370200991630554
            ],
            "min" : [
                -0.13220001757144928,
                0.4286000728607178,
                0.2782200574874878
            ],
            "type" : "VEC3"
        },
        {
            "bufferView" : 22,
            "componentType" : 5126,
            "count" : 20,
            "type" : "VEC3"
        },
        {
            "bufferView" : 23,
            "componentType" : 5123,
            "count" : 60,
            "type" : "SCALAR"
        }
    ],
    "bufferViews" : [
        {
            "buffer" : 0,
            "byteLength" : 6228,
            "byteOffset" : 0
        },
        {
            "buffer" : 0,
            "byteLength" : 6228,
            "byteOffset" : 6228
        },
        {
            "buffer" : 0,
            "byteLength" : 3504,
            "byteOffset" : 12456
        },
        {
            "buffer" : 0,
            "byteLength" : 7236,
            "byteOffset" : 15960
        },
        {
            "buffer" : 0,
            "byteLength" : 7236,
            "byteOffset" : 23196
        },
        {
            "buffer" : 0,
            "byteLength" : 3546,
            "byteOffset" : 30432
        },
        {
            "buffer" : 0,
            "byteLength" : 3780,
            "byteOffset" : 33980
        },
        {
            "buffer" : 0,
            "byteLength" : 3780,
            "byteOffset" : 37760
        },
        {
            "buffer" : 0,
            "byteLength" : 1638,
            "byteOffset" : 41540
        },
        {
            "buffer" : 0,
            "byteLength" : 8028,
            "byteOffset" : 43180
        },
        {
            "buffer" : 0,
            "byteLength" : 8028,
            "byteOffset" : 51208
        },
        {
            "buffer" : 0,
            "byteLength" : 5538,
            "byteOffset" : 59236
        },
        {
            "buffer" : 0,
            "byteLength" : 720,
            "byteOffset" : 64776
        },
        {
            "buffer" : 0,
            "byteLength" : 720,
            "byteOffset" : 65496
        },
        {
            "buffer" : 0,
            "byteLength" : 450,
            "byteOffset" : 66216
        },
        {
            "buffer" : 0,
            "byteLength" : 168,
            "byteOffset" : 66668
        },
        {
            "buffer" : 0,
            "byteLength" : 168,
            "byteOffset" : 66836
        },
        {
            "buffer" : 0,
            "byteLength" : 72,
            "byteOffset" : 67004
        },
        {
            "buffer" : 0,
            "byteLength" : 1560,
            "byteOffset" : 67076
        },
        {
            "buffer" : 0,
            "byteLength" : 1560,
            "byteOffset" : 68636
        },
        {
            "buffer" : 0,
            "byteLength" : 768,
            "byteOffset" : 70196
        },
        {
            "buffer" : 0,
            "byteLength" : 240,
            "byteOffset" : 70964
        },
        {
            "buffer" : 0,
            "byteLength" : 240,
            "byteOffset" : 71204
        },
        {
            "buffer" : 0,
            "byteLength" : 120,
            "byteOffset" : 71444
        }
    ],
    "buffers" : [
        {
            "byteLength" : 71564,
            "uri" : "Gamorrean Guard.bin"
        }
    ]
}
