{
    "asset" : {
        "generator" : "Khronos glTF Blender I/O v1.2.75",
        "version" : "2.0"
    },
    "scene" : 0,
    "scenes" : [
        {
            "name" : "Scene",
            "nodes" : [
                0
            ]
        }
    ],
    "nodes" : [
        {
            "mesh" : 0,
            "name" : "Object",
            "scale" : [
                0.019999999552965164,
                0.019999999552965164,
                0.019999999552965164
            ]
        }
    ],
    "materials" : [
        {
            "doubleSided" : true,
            "emissiveFactor" : [
                0,
                0,
                0
            ],
            "name" : "Black-material",
            "pbrMetallicRoughness" : {
                "baseColorFactor" : [
                    0.019607800990343094,
                    0.07450979948043823,
                    0.11372499912977219,
                    1
                ],
                "metallicFactor" : 0,
                "roughnessFactor" : 0.5
            }
        }
    ],
    "meshes" : [
        {
            "name" : "16957_dat",
            "primitives" : [
                {
                    "attributes" : {
                        "POSITION" : 0,
                        "NORMAL" : 1
                    },
                    "indices" : 2,
                    "material" : 0
                }
            ]
        }
    ],
    "accessors" : [
        {
            "bufferView" : 0,
            "componentType" : 5126,
            "count" : 1011,
            "max" : [
                14.111001014709473,
                30.62700080871582,
                18.016000747680664
            ],
            "min" : [
                -14.111001014709473,
                0,
                -18.328001022338867
            ],
            "type" : "VEC3"
        },
        {
            "bufferView" : 1,
            "componentType" : 5126,
            "count" : 1011,
            "type" : "VEC3"
        },
        {
            "bufferView" : 2,
            "componentType" : 5123,
            "count" : 3384,
            "type" : "SCALAR"
        }
    ],
    "bufferViews" : [
        {
            "buffer" : 0,
            "byteLength" : 12132,
            "byteOffset" : 0
        },
        {
            "buffer" : 0,
            "byteLength" : 12132,
            "byteOffset" : 12132
        },
        {
            "buffer" : 0,
            "byteLength" : 6768,
            "byteOffset" : 24264
        }
    ],
    "buffers" : [
        {
            "byteLength" : 31032,
            "uri" : "RA-7.bin"
        }
    ]
}
