{
    "asset" : {
        "generator" : "Khronos glTF Blender I/O v1.2.75",
        "version" : "2.0"
    },
    "scene" : 0,
    "scenes" : [
        {
            "name" : "Scene",
            "nodes" : [
                0
            ]
        }
    ],
    "nodes" : [
        {
            "mesh" : 0,
            "name" : "Quads",
            "scale" : [
                0.019999999552965164,
                0.019999999552965164,
                0.019999999552965164
            ]
        }
    ],
    "materials" : [
        {
            "doubleSided" : true,
            "emissiveFactor" : [
                0,
                0,
                0
            ],
            "name" : "Dark_Orange-material",
            "pbrMetallicRoughness" : {
                "baseColorFactor" : [
                    0.6627449989318848,
                    0.33333298563957214,
                    0,
                    1
                ],
                "metallicFactor" : 0,
                "roughnessFactor" : 0.5
            }
        }
    ],
    "meshes" : [
        {
            "name" : "24601_dat",
            "primitives" : [
                {
                    "attributes" : {
                        "POSITION" : 0,
                        "NORMAL" : 1
                    },
                    "indices" : 2,
                    "material" : 0
                }
            ]
        }
    ],
    "accessors" : [
        {
            "bufferView" : 0,
            "componentType" : 5126,
            "count" : 1195,
            "max" : [
                19.296001434326172,
                31.524879455566406,
                18.798376083374023
            ],
            "min" : [
                -19.296001434326172,
                0,
                -17.329999923706055
            ],
            "type" : "VEC3"
        },
        {
            "bufferView" : 1,
            "componentType" : 5126,
            "count" : 1195,
            "type" : "VEC3"
        },
        {
            "bufferView" : 2,
            "componentType" : 5123,
            "count" : 3813,
            "type" : "SCALAR"
        }
    ],
    "bufferViews" : [
        {
            "buffer" : 0,
            "byteLength" : 14340,
            "byteOffset" : 0
        },
        {
            "buffer" : 0,
            "byteLength" : 14340,
            "byteOffset" : 14340
        },
        {
            "buffer" : 0,
            "byteLength" : 7626,
            "byteOffset" : 28680
        }
    ],
    "buffers" : [
        {
            "byteLength" : 36308,
            "uri" : "Maz Kanata.bin"
        }
    ]
}
