{
    "asset" : {
        "generator" : "Khronos glTF Blender I/O v1.2.75",
        "version" : "2.0"
    },
    "scene" : 0,
    "scenes" : [
        {
            "name" : "Scene",
            "nodes" : [
                0
            ]
        }
    ],
    "nodes" : [
        {
            "mesh" : 0,
            "name" : "Object"
        }
    ],
    "materials" : [
        {
            "doubleSided" : true,
            "emissiveFactor" : [
                0,
                0,
                0
            ],
            "name" : "Reddish_Brown-material",
            "pbrMetallicRoughness" : {
                "baseColorFactor" : [
                    0.34509798884391785,
                    0.1647060066461563,
                    0.07058820128440857,
                    1
                ],
                "metallicFactor" : 0,
                "roughnessFactor" : 0.5
            }
        },
        {
            "doubleSided" : true,
            "emissiveFactor" : [
                0,
                0,
                0
            ],
            "name" : "Metallic_Silver-material",
            "pbrMetallicRoughness" : {
                "baseColorFactor" : [
                    0.6470590233802795,
                    0.6627449989318848,
                    0.7058820128440857,
                    1
                ],
                "metallicFactor" : 0,
                "roughnessFactor" : 0.5
            }
        },
        {
            "doubleSided" : true,
            "emissiveFactor" : [
                0,
                0,
                0
            ],
            "name" : "Black-material",
            "pbrMetallicRoughness" : {
                "baseColorFactor" : [
                    0.019607800990343094,
                    0.07450979948043823,
                    0.11372499912977219,
                    1
                ],
                "metallicFactor" : 0,
                "roughnessFactor" : 0.5
            }
        }
    ],
    "meshes" : [
        {
            "name" : "30483p01_dat",
            "primitives" : [
                {
                    "attributes" : {
                        "POSITION" : 0,
                        "NORMAL" : 1
                    },
                    "indices" : 2,
                    "material" : 0
                },
                {
                    "attributes" : {
                        "POSITION" : 3,
                        "NORMAL" : 4
                    },
                    "indices" : 5,
                    "material" : 1
                },
                {
                    "attributes" : {
                        "POSITION" : 6,
                        "NORMAL" : 7
                    },
                    "indices" : 8,
                    "material" : 2
                }
            ]
        }
    ],
    "accessors" : [
        {
            "bufferView" : 0,
            "componentType" : 5126,
            "count" : 6239,
            "max" : [
                0.45200011134147644,
                0.7680002450942993,
                0.3580000698566437
            ],
            "min" : [
                -0.4460001289844513,
                -0.6840001940727234,
                -0.3580000698566437
            ],
            "type" : "VEC3"
        },
        {
            "bufferView" : 1,
            "componentType" : 5126,
            "count" : 6239,
            "type" : "VEC3"
        },
        {
            "bufferView" : 2,
            "componentType" : 5123,
            "count" : 31995,
            "type" : "SCALAR"
        },
        {
            "bufferView" : 3,
            "componentType" : 5126,
            "count" : 329,
            "max" : [
                0.3160000741481781,
                0.054000016301870346,
                0.3560001254081726
            ],
            "min" : [
                -0.3160000741481781,
                -0.6400001645088196,
                -0.3580000698566437
            ],
            "type" : "VEC3"
        },
        {
            "bufferView" : 4,
            "componentType" : 5126,
            "count" : 329,
            "type" : "VEC3"
        },
        {
            "bufferView" : 5,
            "componentType" : 5123,
            "count" : 900,
            "type" : "SCALAR"
        },
        {
            "bufferView" : 6,
            "componentType" : 5126,
            "count" : 46,
            "max" : [
                0.12800003588199615,
                0.47000011801719666,
                0.3420000970363617
            ],
            "min" : [
                -0.1640000343322754,
                0.33200010657310486,
                0.21000005304813385
            ],
            "type" : "VEC3"
        },
        {
            "bufferView" : 7,
            "componentType" : 5126,
            "count" : 46,
            "type" : "VEC3"
        },
        {
            "bufferView" : 8,
            "componentType" : 5123,
            "count" : 159,
            "type" : "SCALAR"
        }
    ],
    "bufferViews" : [
        {
            "buffer" : 0,
            "byteLength" : 74868,
            "byteOffset" : 0
        },
        {
            "buffer" : 0,
            "byteLength" : 74868,
            "byteOffset" : 74868
        },
        {
            "buffer" : 0,
            "byteLength" : 63990,
            "byteOffset" : 149736
        },
        {
            "buffer" : 0,
            "byteLength" : 3948,
            "byteOffset" : 213728
        },
        {
            "buffer" : 0,
            "byteLength" : 3948,
            "byteOffset" : 217676
        },
        {
            "buffer" : 0,
            "byteLength" : 1800,
            "byteOffset" : 221624
        },
        {
            "buffer" : 0,
            "byteLength" : 552,
            "byteOffset" : 223424
        },
        {
            "buffer" : 0,
            "byteLength" : 552,
            "byteOffset" : 223976
        },
        {
            "buffer" : 0,
            "byteLength" : 318,
            "byteOffset" : 224528
        }
    ],
    "buffers" : [
        {
            "byteLength" : 224848,
            "uri" : "Chewbacca Head.bin"
        }
    ]
}
